<svg height="512pt" viewBox="0 -49 512 512" width="512pt" xmlns="http://www.w3.org/2000/svg"><path d="m464.730469 0c-26.0625 0-47.265625 21.203125-47.265625 47.269531v105.769531l-9.15625 9.46875c-2.402344-5.550781-5.878906-10.730468-10.4375-15.214843-18.984375-18.683594-49.707032-18.511719-68.484375.382812l-73.386719 73.847657-73.390625-73.847657c-18.773437-18.894531-49.496094-19.066406-68.484375-.382812-4.554688 4.480469-8.035156 9.664062-10.433594 15.214843l-9.15625-9.46875v-105.769531c0-26.066406-21.207031-47.269531-47.269531-47.269531s-47.265625 21.203125-47.265625 47.269531v156.304688l93.777344 157.304687v53.527344h324.445312v-53.527344l93.777344-157.304687v-156.304688c0-26.066406-21.203125-47.269531-47.269531-47.269531zm-223.730469 384.40625h-117.222656v-31.792969l-93.777344-157.304687v-148.039063c0-9.523437 7.746094-17.269531 17.269531-17.269531 9.519531 0 17.265625 7.746094 17.265625 17.269531v117.902344l102.363282 105.871094 21.570312-20.855469-54.433594-56.296875c-6.214844-7.320313-5.800781-18.390625 1.132813-25.214844 7.253906-7.140625 18.988281-7.070312 26.164062.144531l79.667969 80.164063zm241-189.097656-93.777344 157.304687v31.792969h-117.222656v-135.421875l79.667969-80.164063c7.171875-7.21875 18.910156-7.28125 26.164062-.144531 6.933594 6.824219 7.347657 17.894531 1.132813 25.214844l-54.433594 56.296875 21.570312 20.855469 102.363282-105.871094v-117.902344c0-9.523437 7.746094-17.269531 17.265625-17.269531 9.523437 0 17.269531 7.746094 17.269531 17.269531zm0 0"/></svg>