<svg height="512" viewBox="0 0 64 64" width="512" xmlns="http://www.w3.org/2000/svg"><g id="Business-Profit-Growth-Money_Tree-Marketing" data-name="Business-Profit-Growth-Money Tree-Marketing"><path d="m53.68 54.12-.68 1.88 1.88.68a4 4 0 0 0 5.13-2.39l.68-1.88-1.88-.68a4 4 0 0 0 -5.13 2.39z"/><path d="m47.19 51.73-1.88.68.68 1.88a4 4 0 0 0 5.13 2.39l1.88-.68-.68-1.88a4 4 0 0 0 -5.13-2.39z"/><path d="m33 49 1.41-1.41a3.99 3.99 0 0 0 0-5.66l-1.41-1.42-1.41 1.42a3.99 3.99 0 0 0 0 5.66z"/><path d="m12 48a8 8 0 1 0 -8-8 8.009 8.009 0 0 0 8 8zm1-7h-2a3 3 0 0 1 0-6v-1h2v1a3 3 0 0 1 3 3h-2a1 1 0 0 0 -1-1h-2a1 1 0 0 0 0 2h2a3 3 0 0 1 0 6v1h-2v-1a3 3 0 0 1 -3-3h2a1 1 0 0 0 1 1h2a1 1 0 0 0 0-2z"/><path d="m35.836 10.653h14.001v1.737h-14.001z" transform="matrix(.707 -.707 .707 .707 4.398 33.662)"/><path d="m34.586 23h-1.586v6h1.586l.414-.414v-.586a1 1 0 0 1 1-1h9.586l11.314-11.314-7.086-7.086-9.9 9.9 4.793 4.793a1 1 0 0 1 -.707 1.707h-8a1 1 0 0 1 -1-1v-.586z"/><path d="m52.996 4.41-2.284 2.26 5.288 5.289v-4.545z"/><path d="m50 28.586 9.9-9.9-1.586-1.586-9.969 9.968a.982.982 0 0 1 .362.224z"/><path d="m27 27h2v2h-2z"/><path d="m26 23h2v2h-2z"/><path d="m23 26h2v2h-2z"/><path d="m19 28h2v2h-2z"/><path d="m27 31h2v2h-2z"/><path d="m24 34h2v2h-2z"/><path d="m23 30h2v2h-2z"/><path d="m15.707 21.707 1.293-1.293v5.586h2v-5.586l1.293 1.293 1.414-1.414-3-3a1 1 0 0 0 -1.414 0l-3 3z"/><path d="m11 12.414v5.586h2v-5.586l1.293 1.293 1.414-1.414-3-3a1 1 0 0 0 -1.414 0l-3 3 1.414 1.414z"/><path d="m5 22.414v5.586h2v-5.586l1.293 1.293 1.414-1.414-3-3a1 1 0 0 0 -1.414 0l-3 3 1.414 1.414z"/><path d="m2 60h2v2h-2z"/><path d="m60 60h2v2h-2z"/><path d="m54 60v-4h-2v4h-18v-5.638l.88.318a4 4 0 0 0 5.13-2.39l.68-1.88-1.88-.68a3.988 3.988 0 0 0 -4.81 1.728v-.458h-2v.458a3.988 3.988 0 0 0 -4.81-1.728l-1.88.68.68 1.88a4 4 0 0 0 5.13 2.39l.88-.318v5.638h-19v-3.638l.88.318a4 4 0 0 0 5.13-2.39l.68-1.88-1.88-.68a3.988 3.988 0 0 0 -4.81 1.728v-3.458h-2v3.458a3.988 3.988 0 0 0 -4.81-1.728l-1.88.68.68 1.88a4 4 0 0 0 5.13 2.39l.88-.318v3.638h-5v2h52v-2z"/></g></svg>