<svg height="512" viewBox="0 0 64 64" width="512" xmlns="http://www.w3.org/2000/svg"><g id="Money_Tree" data-name="Money Tree"><path d="m32 20a8 8 0 1 0 -8-8 8.009 8.009 0 0 0 8 8zm1-7h-2a3 3 0 0 1 0-6v-1h2v1a3 3 0 0 1 3 3h-2a1 1 0 0 0 -1-1h-2a1 1 0 0 0 0 2h2a3 3 0 0 1 0 6v1h-2v-1a3 3 0 0 1 -3-3h2a1 1 0 0 0 1 1h2a1 1 0 0 0 0-2z"/><path d="m23.072 31.464c3 1.729 6.525.515 7.877-.07-.167-1.465-.882-5.128-3.877-6.858s-6.53-.522-7.879.068c.168 1.463.881 5.129 3.879 6.86z"/><path d="m36.928 24.536c-3.012 1.738-3.716 5.394-3.88 6.857 1.35.586 4.882 1.8 7.88.071s3.71-5.392 3.878-6.858c-1.352-.587-4.883-1.799-7.878-.07z"/><path d="m47 52v-14h-30v14zm-24-2h-3a1 1 0 0 1 -1-1v-3h2v2h2zm0-8h-2v2h-2v-3a1 1 0 0 1 1-1h3zm9 8a5 5 0 1 1 5-5 5.006 5.006 0 0 1 -5 5zm14-1a1 1 0 0 1 -1 1h-3v-2h2v-2h2zm0-5h-2v-2h-2v-2h3a1 1 0 0 1 1 1z"/><circle cx="32" cy="45" r="3"/><path d="m17 54h30v2h-30z"/><path d="m17 58h30v2h-30z"/><path d="m31 22h2v14h-2z"/></g></svg>